<?xml version="1.0" standalone="no"?>
<svg
  width="600"
  height="600"
  viewBox="0 0 600 600"
  xmlns="http://www.w3.org/2000/svg"
>
  <g transform="translate(300,300)">
    <path d="M99.9,-133.7C139.9,-129.7,190,-119.7,222.7,-89.5C255.4,-59.4,270.8,-9.1,250.4,26.2C230,61.5,174,81.8,135.6,106.8C97.3,131.8,76.7,161.3,45.1,185.1C13.4,208.8,-29.2,226.8,-57.6,211.4C-85.9,196.1,-100,147.5,-108.8,109.7C-117.7,71.9,-121.2,44.9,-135.2,13.3C-149.2,-18.2,-173.8,-54.4,-167.4,-79.8C-161,-105.2,-123.8,-119.9,-90.7,-127.2C-57.7,-134.4,-28.8,-134.2,0.5,-135C29.9,-135.9,59.8,-137.8,99.9,-133.7Z" fill="#999999" />
  </g>
</svg>
  