<?xml version="1.0" standalone="no"?>
<svg
  width="600"
  height="600"
  viewBox="0 0 600 600"
  xmlns="http://www.w3.org/2000/svg"
>
  <g transform="translate(300,300)">
    <path d="M104,-147.7C142.9,-137,187.9,-121.7,187.1,-94C186.3,-66.4,139.7,-26.5,112.7,1.5C85.7,29.4,78.4,45.5,75.2,85.3C72.1,125.2,73.1,188.8,52.7,207.4C32.4,226.1,-9.3,199.9,-54,185.9C-98.7,171.9,-146.5,170.1,-156,143.7C-165.4,117.4,-136.7,66.4,-145.1,19.8C-153.5,-26.9,-199.1,-69.3,-202.9,-105.8C-206.7,-142.4,-168.8,-173,-128,-182.8C-87.2,-192.7,-43.6,-181.9,-5.5,-173.3C32.6,-164.8,65.2,-158.5,104,-147.7Z" fill="#999999" />
  </g>
</svg>
  