<?xml version="1.0" standalone="no"?>
<svg
  width="600"
  height="600"
  viewBox="0 0 600 600"
  xmlns="http://www.w3.org/2000/svg"
>
  <g transform="translate(300,300)">
    <path d="M92,-157.6C124.1,-122.5,158.5,-105.3,165.8,-78.8C173.1,-52.3,153.4,-16.5,153.2,25.9C153.1,68.3,172.5,117.3,158.3,141.4C144,165.6,96.1,164.8,57.3,160.3C18.5,155.8,-11.2,147.4,-34.1,133C-57,118.5,-73.1,97.9,-91.8,78.4C-110.6,58.9,-132,40.5,-132.3,20.7C-132.6,0.9,-111.8,-20.3,-100.9,-46.9C-90,-73.4,-89.1,-105.3,-73.9,-148.2C-58.7,-191.1,-29.4,-245,0.3,-245.5C29.9,-245.9,59.8,-192.8,92,-157.6Z" fill="#999999" />
  </g>
</svg>
  